<?xml version="1.0" encoding="UTF-8" standalone="no"?>
<!-- Created with Inkscape (http://www.inkscape.org/) -->

<svg
   width="150.47672mm"
   height="55.816196mm"
   viewBox="0 0 150.47672 55.816196"
   version="1.1"
   id="svg1"
   xml:space="preserve"
   inkscape:version="1.3.2 (1:1.3.2+202311252150+091e20ef0f)"
   sodipodi:docname="NetSci_Maastricht_logo.svg"
   xmlns:inkscape="http://www.inkscape.org/namespaces/inkscape"
   xmlns:sodipodi="http://sodipodi.sourceforge.net/DTD/sodipodi-0.dtd"
   xmlns="http://www.w3.org/2000/svg"
   xmlns:svg="http://www.w3.org/2000/svg"><sodipodi:namedview
     id="namedview1"
     pagecolor="#ffffff"
     bordercolor="#666666"
     borderopacity="1.0"
     inkscape:showpageshadow="2"
     inkscape:pageopacity="0.0"
     inkscape:pagecheckerboard="0"
     inkscape:deskcolor="#d1d1d1"
     inkscape:document-units="mm"
     inkscape:zoom="0.76969697"
     inkscape:cx="244.25197"
     inkscape:cy="292.32283"
     inkscape:window-width="1976"
     inkscape:window-height="1088"
     inkscape:window-x="72"
     inkscape:window-y="27"
     inkscape:window-maximized="1"
     inkscape:current-layer="layer1" /><defs
     id="defs1" /><g
     inkscape:label="Layer 1"
     inkscape:groupmode="layer"
     id="layer1"
     transform="translate(-40.36148,-65.97425)"><g
       id="g11"
       transform="translate(-1.0583334,-111.12501)"><path
         style="fill:#fc1b06;fill-opacity:1"
         d="m 55.470992,220.74632 c -0.921475,-0.20001 -2.57955,-0.8104 -3.684611,-1.35643 -2.699238,-1.33371 -5.480895,-4.06364 -6.79054,-6.66425 -0.524214,-1.04095 -1.135802,-2.57718 -1.359085,-3.41384 -0.495124,-1.85528 -0.553515,-5.63241 -0.116407,-7.52996 0.665793,-2.8903 2.904524,-6.62817 4.918776,-8.21258 l 0.688934,-0.54192 2.589741,2.75142 c 1.424357,1.51328 2.560317,2.78459 2.524354,2.82512 -0.03596,0.0405 -0.576763,0.16101 -1.201779,0.26771 l -1.136394,0.19399 0.636835,0.71511 c 0.350259,0.39331 0.934491,0.73784 1.298293,0.76564 0.363802,0.0278 1.346068,0.032 2.182813,0.009 l 1.521354,-0.0412 v -1.93827 c 0,-1.68394 -0.08035,-2.01374 -0.612365,-2.51354 -0.336801,-0.31641 -0.75352,-0.57529 -0.926042,-0.57529 -0.188784,0 -0.313676,0.41517 -0.313676,1.04272 0,0.57349 -0.09763,1.10305 -0.216945,1.1768 -0.11932,0.0737 -1.443298,-1.09646 -2.942173,-2.60046 l -2.725228,-2.73453 1.200572,-0.70358 c 2.20012,-1.28936 4.089569,-1.80431 7.122378,-1.94112 2.973862,-0.13415 4.326296,0.0735 6.755666,1.03724 l 1.389062,0.55106 0.0041,4.53333 c 0.0023,2.5226 0.119609,4.70936 0.264583,4.93021 0.231584,0.35277 0.291964,0.35277 0.54342,0 0.187148,-0.26256 0.250593,-2.32209 0.187465,-6.08542 -0.05248,-3.1287 -0.03095,-5.01814 0.04784,-4.19876 0.137518,1.43003 0.2031,1.53842 1.63511,2.70248 0.820515,0.66698 1.921267,1.79768 2.446115,2.51267 1.981329,2.69911 3.328893,6.62544 3.328893,9.69924 0,2.07653 -0.690632,4.84878 -1.746716,7.01145 -0.717575,1.46947 -1.490823,2.4993 -2.979993,3.96881 -1.150491,1.13531 -2.711324,2.35514 -3.647703,2.85077 -2.115748,1.11989 -5.264998,1.91721 -7.467577,1.89064 -0.958988,-0.0116 -2.497548,-0.18468 -3.419023,-0.3847 z M 69.250793,210.5253 c 1.322134,-0.6614 2.361803,-2.27694 2.519151,-3.91449 0.175648,-1.82801 -0.674491,-3.52181 -2.278056,-4.53876 -0.940461,-0.59643 -1.514062,-0.76375 -2.618245,-0.76375 -1.818732,0 -3.295809,0.74672 -4.210161,2.1284 -0.953986,1.44157 -1.110943,3.24187 -0.419014,4.80609 0.290175,0.65599 0.936347,1.50448 1.435938,1.88553 1.037311,0.7912 2.624369,1.22169 3.784744,1.02662 0.436563,-0.0734 1.240102,-0.35673 1.785643,-0.62964 z m 96.208357,-15.55357 c -0.52809,-0.28731 -1.2691,-0.88952 -1.64668,-1.33826 -0.86707,-1.03045 -1.31637,-2.67032 -1.09333,-3.99047 0.33822,-2.0019 2.07151,-3.73519 4.07341,-4.07341 1.32078,-0.22314 2.96014,0.22636 3.99196,1.09458 0.44956,0.37828 1.06331,1.16983 1.36388,1.75901 0.41319,0.80992 0.51834,1.41077 0.43107,2.4632 -0.13267,1.5998 -0.88898,2.87775 -2.25842,3.81611 -1.25533,0.86016 -3.54288,0.98685 -4.86189,0.26924 z"
         id="path11" /><path
         style="fill:#353535"
         d="m 93.711114,215.70175 c -0.597483,-0.32393 -1.541439,-2.03088 -4.859161,-8.7868 -2.264695,-4.61162 -4.490847,-9.15868 -4.947006,-10.10456 l -0.82938,-1.71979 -0.06922,10.38489 -0.06922,10.3849 h -1.726915 -1.726914 l 0.07634,-12.06046 0.07634,-12.06045 0.86407,-0.77184 c 0.610699,-0.54551 1.13949,-0.77184 1.803332,-0.77184 1.01889,0 1.898119,0.37359 2.436785,1.03541 0.342603,0.42093 4.394824,8.46827 7.861274,15.61176 l 1.851205,3.81488 0.178826,-1.16904 c 0.09835,-0.64298 0.187651,-5.18741 0.198438,-10.09874 l 0.01961,-8.92968 h 1.5875 1.5875 v 11.73447 c 0,7.78729 -0.09702,12.01279 -0.288425,12.56186 -0.219128,0.62859 -0.521085,0.892 -1.256771,1.09634 -1.295727,0.35989 -1.884701,0.3277 -2.768214,-0.15131 z m 12.748926,0.0736 c -1.54374,-0.57689 -2.77723,-1.4435 -4.01651,-2.82188 -1.57567,-1.75253 -2.14009,-3.58674 -1.98259,-6.44294 0.0906,-1.64287 0.28281,-2.476 0.80344,-3.48242 0.82305,-1.59105 2.5443,-3.30259 4.16848,-4.14498 1.0174,-0.52768 1.57555,-0.61688 3.83646,-0.61309 2.37291,0.004 2.79593,0.0811 4.10104,0.7474 0.80036,0.40863 1.72538,0.99508 2.05559,1.30322 0.67337,0.62836 2.30061,3.07143 2.14563,3.22136 -0.0551,0.0533 -2.59617,1.47752 -5.64682,3.16494 -3.05066,1.68741 -5.68172,3.06802 -5.8468,3.06802 -0.30093,0 -1.3516,-2.0326 -1.14952,-2.22384 0.0592,-0.056 1.89348,-1.10297 4.07629,-2.32665 2.18281,-1.22368 3.96875,-2.38539 3.96875,-2.58157 0,-0.19618 -0.46701,-0.59904 -1.0378,-0.89526 -0.72019,-0.37374 -1.54444,-0.53856 -2.69333,-0.53856 -1.37192,0 -1.87201,0.13384 -2.91925,0.78129 -0.91183,0.56375 -1.46958,1.17537 -2.00302,2.19649 -0.57868,1.10773 -0.73804,1.76791 -0.7335,3.03863 0.007,1.8648 0.60047,3.37877 1.74677,4.45366 1.51294,1.41871 3.73052,1.8834 5.99148,1.25552 0.54845,-0.15231 1.40387,-0.68361 1.90092,-1.18066 0.50192,-0.50191 1.15463,-1.59182 1.46801,-2.45129 0.54314,-1.48964 0.59578,-1.54388 1.40637,-1.44936 1.84768,0.21547 2.03274,0.31259 2.03252,1.06675 -3.3e-4,1.14327 -1.40788,3.81751 -2.52603,4.79925 -0.56182,0.49329 -1.68177,1.19947 -2.48877,1.5693 -1.08996,0.4995 -2.0116,0.69452 -3.58395,0.75839 -1.33418,0.0542 -2.47052,-0.0463 -3.07386,-0.27172 z m 16.56761,-0.30977 c -1.25301,-0.43993 -2.64899,-1.93608 -2.87886,-3.08541 -0.0901,-0.45059 -0.16385,-4.73343 -0.16385,-9.51743 v -8.69818 h 1.44408 1.44408 l 0.0773,2.05052 0.0773,2.05053 2.97656,0.0748 2.97656,0.0748 v 1.43787 1.43788 l -2.97656,0.0748 -2.97656,0.0748 0.002,4.7625 c 10e-4,2.61938 0.0915,5.08459 0.2005,5.47824 0.14775,0.53382 0.44977,0.78563 1.18823,0.9907 0.54457,0.15124 1.7938,0.27564 2.77607,0.27645 l 1.78593,0.001 v 1.45521 1.45521 l -2.44739,-0.0116 c -1.39186,-0.007 -2.90385,-0.17187 -3.50573,-0.3832 z m 8.59896,-0.10883 c 0,-0.39377 0.1727,-0.55966 0.59531,-0.57182 0.32742,-0.009 3.00693,-0.10634 5.95446,-0.21539 l 5.35914,-0.19826 1.09821,-0.7768 c 0.60402,-0.42723 1.34756,-1.11298 1.65232,-1.52388 0.43264,-0.58332 0.54993,-1.11583 0.53507,-2.42932 -0.0154,-1.35785 -0.15451,-1.88697 -0.72168,-2.74402 -0.38646,-0.58398 -1.21133,-1.35267 -1.83306,-1.7082 -0.62172,-0.35553 -2.67821,-1.14993 -4.56998,-1.76533 -3.49799,-1.13792 -5.36285,-1.97252 -6.39537,-2.86217 -0.316,-0.27228 -0.82157,-0.90025 -1.12349,-1.3955 -0.43134,-0.70754 -0.54917,-1.34259 -0.54994,-2.96411 -0.001,-2.18789 0.29636,-3.07636 1.36293,-4.07148 0.34125,-0.31839 1.15623,-0.8218 1.81108,-1.11867 1.07418,-0.48699 1.72753,-0.54035 6.68073,-0.54559 5.16493,-0.005 5.4901,0.0231 5.4901,0.48305 0,0.45212 -0.42256,0.50795 -5.6224,0.74289 -4.4378,0.20051 -5.80302,0.34951 -6.47969,0.70722 -1.57282,0.83142 -2.37032,3.45147 -1.63941,5.38599 0.42906,1.13561 1.56117,2.20516 3.02587,2.85866 0.72761,0.32463 2.56999,0.97585 4.0942,1.44714 1.5242,0.4713 3.43951,1.19423 4.25625,1.60652 0.81674,0.41229 1.84902,1.16423 2.29395,1.67097 0.44493,0.50675 0.95345,1.35916 1.13005,1.89425 0.17873,0.54158 0.27558,1.77822 0.21844,2.78942 -0.0845,1.49485 -0.2436,2.01708 -0.89864,2.94909 -0.52909,0.7528 -1.31839,1.39983 -2.35394,1.92963 l -1.55794,0.79707 -5.90629,0.0917 c -5.8496,0.0908 -5.90628,0.0863 -5.90628,-0.46302 z m 25.50857,0.20877 c -0.59513,-0.13676 -1.72623,-0.63313 -2.51355,-1.10304 -1.58139,-0.94386 -2.94493,-2.72215 -3.46089,-4.51358 -0.17424,-0.60498 -0.31598,-2.05246 -0.31497,-3.21663 0.001,-1.5642 0.14438,-2.43588 0.54798,-3.33968 0.30038,-0.67265 0.99849,-1.7237 1.55136,-2.33565 1.35562,-1.50051 3.25264,-2.42611 5.25557,-2.56431 0.88223,-0.0609 2.11007,-0.152 2.72853,-0.2025 1.00417,-0.082 1.12448,-0.0307 1.12448,0.47964 0,0.52422 -0.20644,0.596 -2.49774,0.86843 -3.68616,0.43827 -5.46599,1.53815 -6.85575,4.23666 -0.30964,0.60122 -0.43441,1.5219 -0.43028,3.175 0.004,1.67868 0.14028,2.62352 0.48781,3.38658 0.53182,1.16771 2.31144,2.90892 3.42281,3.3489 0.39258,0.15542 1.84487,0.418 3.22732,0.58351 2.23684,0.2678 2.51354,0.35917 2.51354,0.83009 0,0.47467 -0.19074,0.5336 -1.85209,0.5722 -1.01864,0.0237 -2.339,-0.0689 -2.93413,-0.20562 z m 9.68101,-8.30408 v -8.59896 h 0.66146 0.66145 v 8.59896 8.59896 h -0.66145 -0.66146 z M 66.422936,200.44841 c -0.06944,-0.32742 -0.165323,-4.70297 -0.213073,-9.72344 -0.08516,-8.95361 -0.09871,-9.15265 -0.708654,-10.41075 -0.352996,-0.7281 -0.977983,-1.49979 -1.445614,-1.78495 -0.764988,-0.46647 -1.44565,-0.50239 -9.537638,-0.50331 -8.273716,-9.4e-4 -8.771033,0.0267 -9.845751,0.54695 -1.236942,0.59879 -2.160189,1.84467 -2.37988,3.21152 -0.08925,0.55529 0.07366,1.44024 0.449672,2.44265 0.532513,1.41965 1.165943,2.15588 6.539576,7.60091 3.272473,3.31595 6.053376,5.96509 6.179785,5.88696 0.126408,-0.0781 0.229834,-0.61127 0.229834,-1.18476 0,-1.21434 0.410343,-1.35265 1.276796,-0.43035 0.480471,0.51143 0.575287,0.9257 0.575287,2.51354 v 1.90117 l -1.521354,0.0411 c -0.836745,0.0226 -1.819011,0.0184 -2.182813,-0.009 -0.363802,-0.0278 -0.948034,-0.37232 -1.298293,-0.76563 l -0.636835,-0.71511 1.136394,-0.19399 c 0.625016,-0.1067 1.171005,-0.22861 1.213309,-0.27092 0.0423,-0.0423 -2.546063,-2.8139 -5.751925,-6.15912 -3.205862,-3.34521 -6.070703,-6.55495 -6.366314,-7.13276 -0.29561,-0.5778 -0.596886,-1.7907 -0.669502,-2.69534 -0.115838,-1.4431 -0.04484,-1.79356 0.578945,-2.85798 0.391034,-0.66725 1.201542,-1.53794 1.801128,-1.93486 l 1.090156,-0.72168 h 9.432345 9.432345 l 0.907354,0.69157 c 0.499045,0.38037 1.196855,1.27124 1.550688,1.97972 0.627539,1.25653 0.649506,1.51653 0.894697,10.59 0.13825,5.11602 0.17334,9.61272 0.07798,9.99268 -0.09536,0.37995 -0.287911,0.69082 -0.427887,0.69082 -0.139976,0 -0.311316,-0.26789 -0.380756,-0.59531 z"
         id="path10" /></g><g
       id="g8"
       transform="matrix(0.29357691,0,0,0.29357691,112.64338,70.799497)"><path
         style="fill:#fc1b06"
         d="m 221.01705,173.20469 c -0.24084,-0.26612 -0.43728,-0.71261 -0.43653,-0.99219 7.4e-4,-0.27958 1.36978,-4.4374 3.0423,-9.23958 1.67252,-4.80219 3.03823,-8.85032 3.03493,-8.99584 -0.003,-0.14552 -3.24308,-2.52677 -7.19949,-5.29166 -3.95641,-2.7649 -7.46586,-5.28957 -7.79878,-5.61037 -0.7146,-0.6886 -0.76496,-1.20364 -0.17536,-1.79325 0.38289,-0.38289 1.48785,-0.42502 10.09591,-0.38495 l 9.66597,0.045 3.00761,-8.69592 c 3.72076,-10.75786 3.57146,-10.41571 4.54513,-10.41571 0.4211,0 0.87942,0.14883 1.0185,0.33073 0.13907,0.1819 1.59905,4.31932 3.24438,9.19427 1.64534,4.87495 3.09813,9.0719 3.22843,9.32656 0.21904,0.42811 0.96045,0.46302 9.83197,0.46302 10.09934,0 10.23006,0.0153 10.23006,1.19742 0,0.78099 -0.28176,1.00207 -8.41459,6.60234 -3.97319,2.73593 -7.17531,5.10656 -7.11583,5.26806 0.0595,0.1615 1.46372,4.37226 3.12055,9.35724 3.21608,9.6764 3.25258,9.88879 1.73054,10.07043 -0.55661,0.0664 -2.35213,-1.0747 -8.57227,-5.448 -4.3275,-3.04261 -8.0077,-5.61177 -8.17821,-5.70924 -0.17416,-0.0995 -2.9569,1.65723 -6.35,4.00884 -8.96217,6.2113 -10.4402,7.19666 -10.79489,7.19666 -0.17735,0 -0.5195,-0.21773 -0.76033,-0.48385 z M 26.047356,165.29933 c 0.329119,-0.0633 0.805369,-0.0609 1.058334,0.005 0.252965,0.0662 -0.01631,0.118 -0.598398,0.11507 -0.582083,-0.003 -0.789054,-0.0571 -0.459936,-0.12041 z m 130.082294,-4.31079 c 0,-2.54661 0.0397,-3.58841 0.0882,-2.3151 0.0485,1.27331 0.0485,3.3569 0,4.63021 -0.0485,1.2733 -0.0882,0.23151 -0.0882,-2.31511 z m -226.769911,1.98438 c 0.0012,-1.01865 0.049,-1.40295 0.106272,-0.854 0.05728,0.54895 0.05632,1.38239 -0.0021,1.85209 -0.05845,0.46969 -0.105312,0.0205 -0.104138,-0.99809 z m 98.18241,-10.45104 c 0,-2.54662 0.03968,-3.58842 0.08819,-2.31511 0.0485,1.27331 0.0485,3.3569 0,4.63021 -0.0485,1.27331 -0.08819,0.23151 -0.08819,-2.3151 z M 192.72587,140.95383 c 0.4697,-0.0585 1.30313,-0.0594 1.85208,-0.002 0.54895,0.0573 0.16465,0.1051 -0.85399,0.10627 -1.01865,0.001 -1.46779,-0.0457 -0.99809,-0.10414 z m -86.42582,-8.43005 c 0.0127,-0.30822 0.0754,-0.37091 0.15986,-0.15985 0.0764,0.191 0.067,0.4192 -0.0209,0.50712 -0.0879,0.0879 -0.15045,-0.0684 -0.13897,-0.34727 z m 75.31922,-0.57072 c 0.9095,-0.0517 2.39779,-0.0517 3.30729,0 0.90951,0.0517 0.16537,0.0939 -1.65364,0.0939 -1.81901,0 -2.56316,-0.0423 -1.65365,-0.0939 z"
         id="path9" /><path
         style="fill:#030305"
         d="m 131.47445,166.24662 c -3.53158,-0.51725 -6.49131,-2.23218 -8.50829,-4.92987 -1.6286,-2.17824 -2.18884,-3.94834 -2.33699,-7.38382 -0.15224,-3.53034 0.36552,-5.64703 1.99818,-8.16892 1.31645,-2.03345 2.62216,-3.15891 4.94416,-4.26162 4.96354,-2.35717 10.95491,-1.5777 14.68393,1.91036 0.73149,0.68422 1.32998,1.32781 1.32998,1.43021 0,0.17802 -3.73895,3.38847 -4.43647,3.80938 -0.20438,0.12333 -0.73771,-0.11622 -1.36516,-0.61317 -2.63488,-2.08686 -6.13951,-2.05894 -8.45474,0.0674 -1.94135,1.78291 -2.51514,5.95376 -1.18602,8.62096 1.84691,3.70627 6.48611,4.41697 10.00494,1.5327 l 0.78025,-0.63955 2.3286,2.00136 c 1.28073,1.10075 2.3286,2.08562 2.3286,2.1886 0,0.33225 -2.72074,2.64498 -3.69831,3.1437 -2.30684,1.17686 -5.67176,1.69377 -8.41266,1.29232 z m 54.31201,-0.0719 c -3.12675,-0.98886 -4.93453,-3.05234 -5.65595,-6.45594 -0.19694,-0.92918 -0.29718,-5.81515 -0.29718,-14.48594 v -13.08385 h 3.43959 3.43958 v 4.36562 4.36563 h 1.67863 c 0.92325,0 2.94731,0.0776 4.49792,0.1725 l 2.81928,0.1725 v 2.87021 2.8702 h -4.49791 -4.49792 v 5.31783 c 0,5.93288 0.19006,6.79182 1.67244,7.55839 1.07137,0.55403 3.65684,0.3499 5.13782,-0.40565 0.60839,-0.31037 1.20246,-0.56431 1.32017,-0.56431 0.11771,0 0.73984,1.14631 1.38252,2.54736 1.31424,2.86508 1.35292,2.68892 -0.83978,3.82461 -2.38333,1.23442 -7.17123,1.69871 -9.59921,0.93084 z M 69.29736,165.996 c -3.955963,-0.68718 -6.383474,-3.36834 -6.920262,-7.64334 -0.11963,-0.95273 -0.155325,-7.35737 -0.07932,-14.23254 l 0.138185,-12.5003 h 3.262081 3.262081 l 0.07254,4.43177 0.07254,4.43177 4.43177,0.0726 4.431771,0.0725 v 3.03631 3.03631 H 73.47083 68.972913 v 5.07584 c 0,4.58462 0.05276,5.18482 0.545126,6.20192 0.431575,0.89152 0.787435,1.21862 1.708378,1.57033 1.371713,0.52386 2.496633,0.38521 4.599806,-0.56694 0.786144,-0.3559 1.456118,-0.61562 1.488832,-0.57714 0.139452,0.16401 1.213226,2.37249 1.813969,3.73087 l 0.651019,1.47208 -1.114184,0.65295 c -2.573817,1.50836 -6.493935,2.23435 -9.368503,1.73502 z m -57.974947,-0.25056 c -4.4147032,-0.92763 -7.9906674,-4.4304 -9.3130992,-9.12249 -0.5217709,-1.85129 -0.4605381,-6.22996 0.113251,-8.09843 0.631934,-2.0578 2.0650981,-4.38514 3.5516967,-5.76764 2.3243362,-2.16158 6.1958545,-3.45004 9.1890205,-3.05815 1.736213,0.22732 4.128283,1.29925 5.052818,2.26426 0.405389,0.42313 0.833857,0.76933 0.952152,0.76933 0.118295,0 0.215082,-0.53578 0.215082,-1.19062 v -1.19063 h 3.349427 3.349427 l -0.173778,5.75469 c -0.09558,3.16508 -0.17407,8.76101 -0.174427,12.43542 l -6.49e-4,6.68073 h -3.307292 -3.307291 v -1.24253 -1.24253 l -0.859896,0.83133 c -1.891751,1.8289 -5.711471,2.79186 -8.636442,2.17726 z m 5.436304,-6.47406 c 2.508595,-0.74498 4.089206,-2.96294 4.274204,-5.99771 0.165611,-2.71673 -0.69471,-4.7445 -2.591368,-6.10784 -3.088086,-2.21976 -7.43363,-1.15597 -9.1696616,2.24474 -0.5849009,1.14576 -0.7099874,1.74203 -0.7082049,3.37592 0.00137,1.25191 0.1601874,2.33881 0.4302779,2.94462 1.4035276,3.14808 4.4334716,4.52955 7.7647526,3.54027 z m 23.841179,6.48728 c -2.410017,-0.4371 -6.256417,-1.96114 -6.680226,-2.64688 -0.124479,-0.20141 1.862824,-4.31681 2.419423,-5.01025 0.04808,-0.0599 0.653566,0.19667 1.345519,0.57017 3.875121,2.09168 9.848516,2.31548 11.254852,0.42168 0.715254,-0.96318 0.44713,-1.89111 -0.704314,-2.4375 -0.494864,-0.23483 -2.349191,-0.67023 -4.120729,-0.96756 -3.878522,-0.65095 -5.651115,-1.27814 -7.087675,-2.50778 -1.555477,-1.33143 -2.185079,-2.79359 -2.185079,-5.07453 0,-3.40751 1.271865,-5.59079 4.049815,-6.95189 0.9013,-0.44161 2.353102,-0.93593 3.226227,-1.0985 1.956917,-0.36436 6.858048,-0.1387 8.863542,0.40809 2.240107,0.61076 4.497916,1.56469 4.497916,1.90038 0,0.16631 -0.294408,0.9681 -0.65424,1.78174 -0.359833,0.81365 -0.824576,1.88702 -1.032763,2.38529 l -0.378523,0.90593 -2.15104,-0.76119 c -4.15188,-1.46924 -7.667708,-1.60832 -8.92304,-0.35298 -1.464035,1.46403 -0.388066,2.80541 2.629153,3.27769 6.696898,1.04824 9.155982,2.18772 10.586933,4.90571 0.420659,0.79901 0.559737,1.55081 0.5676,3.06822 0.01362,2.6278 -0.935938,4.63192 -2.897737,6.11594 -2.107679,1.59436 -3.93023,2.10111 -7.932801,2.20567 -1.891771,0.0494 -4.003536,-0.0124 -4.692813,-0.13745 z m 125.659224,0.0883 c -0.10127,-0.10126 -0.18412,-3.65138 -0.18412,-7.88916 0,-7.46883 -0.0182,-7.74077 -0.59531,-8.8701 -0.934,-1.82788 -1.71742,-2.25437 -4.14104,-2.25437 -1.85494,0 -2.14792,0.0734 -3.05475,0.76505 -1.82566,1.3925 -1.94912,1.99599 -2.15924,10.55492 l -0.18652,7.59774 h -3.26775 -3.26774 l 0.0679,-18.45469 0.0679,-18.45468 3.37344,-0.074 3.37344,-0.0741 v 7.27046 7.27046 l 0.99218,-0.91472 c 1.61986,-1.49339 3.44543,-2.03756 6.41615,-1.91256 1.81731,0.0765 2.85926,0.26137 3.76164,0.66755 1.84717,0.83143 3.71561,2.71353 4.60461,4.63825 l 0.76187,1.6495 v 9.26042 9.26041 l -3.18932,0.0739 c -1.75412,0.0406 -3.27217,-0.009 -3.37343,-0.11025 z m -188.87008,-0.69367 c -3.949515,-1.3801 -6.629583,-4.3763 -7.779663,-8.69732 -0.475506,-1.78654 -0.488971,-5.76674 -0.0254,-7.50733 1.606375,-6.03149 6.402919,-9.68553 12.258824,-9.33885 2.413617,0.14289 4.029176,0.77406 5.589495,2.18371 l 1.076899,0.97291 0.08134,-1.27383 c 0.07198,-1.12728 0.149829,-1.27166 0.676652,-1.25493 0.327422,0.0104 1.7859372,0.0402 3.2411455,0.0661 l 2.6458333,0.0473 v 12.43542 12.43542 h -3.3072916 -3.3072912 v -1.19063 c 0,-0.65484 -0.07358,-1.19062 -0.163509,-1.19062 -0.08993,0 -0.589896,0.37437 -1.111037,0.83194 -1.570776,1.37916 -3.069539,1.90279 -5.736913,2.00432 -1.967591,0.0749 -2.686612,-0.016 -4.139086,-0.5236 z m 7.909777,-6.43049 c 3.956851,-1.97178 4.619306,-8.18347 1.201074,-11.26222 -1.348855,-1.21489 -2.641134,-1.64194 -4.550706,-1.50381 -1.915833,0.13858 -3.36687,0.88878 -4.448752,2.30005 -1.095502,1.42904 -1.485669,2.90966 -1.333077,5.05881 0.147342,2.0752 0.873798,3.61103 2.244237,4.74464 1.846273,1.5272 4.617151,1.79376 6.887224,0.66253 z m 101.93035,6.78492 c -2.170798,-0.13261 -2.510535,-0.21669 -2.491493,-0.61657 0.01213,-0.25467 0.04189,-5.82084 0.06615,-12.36927 l 0.0441,-11.90626 h 3.307291 3.307292 v 1.21098 1.21098 l 0.824322,-0.82432 c 1.662358,-1.66236 2.678029,-1.99451 6.098942,-1.99451 1.697749,0 3.171199,0.0844 3.274349,0.18754 0.15958,0.15958 -0.51049,5.5763 -0.7995,6.46307 -0.0717,0.21998 -0.51135,0.20335 -1.639189,-0.062 -2.857083,-0.67223 -4.973253,-0.25652 -6.352237,1.24785 -1.163374,1.26916 -1.249456,1.87846 -1.397349,9.89063 l -0.14163,7.67292 -0.79375,0.0213 c -0.436562,0.0117 -1.924843,-0.0478 -3.307291,-0.13229 z m 20.057803,0.0449 c -0.045,-0.10914 -0.0497,-5.76814 -0.0104,-12.57557 l 0.0713,-12.37714 3.36827,0.074 3.36827,0.074 -0.007,2.3151 c -0.004,1.27331 -0.0334,6.89901 -0.0661,12.50156 l -0.0595,10.18646 h -3.29167 c -1.81043,0 -3.32847,-0.0893 -3.37344,-0.19844 z m -148.645302,-0.52136 -2.513541,-0.0914 v -7.86264 c 0,-7.78563 -0.0061,-7.87334 -0.626503,-8.95593 -0.847232,-1.47847 -2.214774,-2.214 -4.116416,-2.214 -2.478603,0 -4.10184,1.13666 -4.873904,3.41292 -0.201517,0.59413 -0.305052,3.40039 -0.305052,8.26823 v 7.36885 h -3.439584 -3.439583 v -7.85396 c 0,-7.29676 -0.03726,-7.93029 -0.525241,-8.92969 -1.704263,-3.49043 -7.093895,-3.18253 -8.767014,0.50083 -0.413087,0.90941 -0.486575,1.78507 -0.491517,5.85677 -0.0032,2.63311 -0.08344,6.05616 -0.178311,7.60677 l -0.172499,2.81928 h -3.663959 -3.663959 v -12.17083 -12.17084 h 3.704167 3.704167 v 0.92605 c 0,0.50932 0.04288,0.92604 0.09528,0.92604 0.05241,0 0.516766,-0.39751 1.031914,-0.88336 3.426737,-3.23183 9.620215,-2.94146 13.183529,0.61809 l 1.213851,1.21256 0.936061,-1.07606 c 1.146442,-1.31791 3.2216,-2.36854 5.491103,-2.78008 3.933141,-0.71321 8.198941,0.94182 10.087301,3.91363 1.497201,2.35623 1.57725,3.03734 1.500527,12.76761 l -0.06978,8.84948 -0.79375,0.0165 c -0.436563,0.009 -1.924844,-0.0246 -3.307292,-0.0749 z M 108.62015,136.39269 c -1.36293,-0.74141 -2.0764,-2.01029 -2.0764,-3.69279 0,-1.58798 0.44821,-2.5944 1.57925,-3.54611 1.88017,-1.58205 5.03129,-0.94446 6.30318,1.27538 1.11485,1.94574 0.55361,4.36849 -1.33937,5.7818 -1.02133,0.76254 -3.2335,0.85253 -4.46666,0.18172 z"
         id="path8" /></g></g></svg>
